<mxfile host="app.diagrams.net" modified="2024-04-01T13:37:57.549Z" agent="Mozilla/5.0 (Macintosh; Intel Mac OS X 10_15_7) AppleWebKit/537.36 (KHTML, like Gecko) Chrome/123.0.0.0 Safari/537.36" etag="Eo1Z7QCAXgekyBOf4xVL" version="24.2.1" type="device">
  <diagram name="Page-1" id="8OBKk41p--By60RAJChD">
    <mxGraphModel dx="2818" dy="1359" grid="1" gridSize="10" guides="1" tooltips="1" connect="1" arrows="1" fold="1" page="1" pageScale="1" pageWidth="850" pageHeight="1100" math="0" shadow="0">
      <root>
        <mxCell id="0" />
        <mxCell id="1" parent="0" />
        <mxCell id="VmBzKAPH3LvwEZfFCWB9-1" value="cwcloud-api" style="whiteSpace=wrap;html=1;aspect=fixed;fillColor=#d5e8d4;strokeColor=#82b366;" parent="1" vertex="1">
          <mxGeometry x="360" y="170" width="380" height="380" as="geometry" />
        </mxCell>
        <mxCell id="VmBzKAPH3LvwEZfFCWB9-2" value="PostgreSQL" style="shape=cylinder3;whiteSpace=wrap;html=1;boundedLbl=1;backgroundOutline=1;size=15;fillColor=#f8cecc;strokeColor=#b85450;" parent="1" vertex="1">
          <mxGeometry x="370" y="470" width="100" height="80" as="geometry" />
        </mxCell>
        <mxCell id="VmBzKAPH3LvwEZfFCWB9-4" value="user" style="shape=umlActor;verticalLabelPosition=bottom;verticalAlign=top;html=1;outlineConnect=0;" parent="1" vertex="1">
          <mxGeometry x="-390" y="330" width="30" height="60" as="geometry" />
        </mxCell>
        <mxCell id="VmBzKAPH3LvwEZfFCWB9-8" value="cwcloud-ui" style="whiteSpace=wrap;html=1;aspect=fixed;fillColor=#d5e8d4;strokeColor=#82b366;" parent="1" vertex="1">
          <mxGeometry x="-150" y="270" width="170" height="170" as="geometry" />
        </mxCell>
        <mxCell id="VmBzKAPH3LvwEZfFCWB9-10" value="" style="endArrow=classic;html=1;rounded=0;entryX=0;entryY=0.5;entryDx=0;entryDy=0;" parent="1" target="VmBzKAPH3LvwEZfFCWB9-8" edge="1" source="VmBzKAPH3LvwEZfFCWB9-4">
          <mxGeometry width="50" height="50" relative="1" as="geometry">
            <mxPoint x="-350" y="370" as="sourcePoint" />
            <mxPoint x="-300" y="330" as="targetPoint" />
          </mxGeometry>
        </mxCell>
        <mxCell id="VmBzKAPH3LvwEZfFCWB9-12" value="" style="endArrow=classic;html=1;rounded=0;entryX=0;entryY=0.5;entryDx=0;entryDy=0;" parent="1" source="VmBzKAPH3LvwEZfFCWB9-8" target="VmBzKAPH3LvwEZfFCWB9-1" edge="1">
          <mxGeometry width="50" height="50" relative="1" as="geometry">
            <mxPoint x="160" y="380" as="sourcePoint" />
            <mxPoint x="210" y="330" as="targetPoint" />
          </mxGeometry>
        </mxCell>
        <mxCell id="VmBzKAPH3LvwEZfFCWB9-15" value="Redis" style="shape=cylinder3;whiteSpace=wrap;html=1;boundedLbl=1;backgroundOutline=1;size=15;fillColor=#f8cecc;strokeColor=#b85450;" parent="1" vertex="1">
          <mxGeometry x="480" y="470" width="100" height="80" as="geometry" />
        </mxCell>
        <mxCell id="VmBzKAPH3LvwEZfFCWB9-33" value="RESTful endpoint invocation&lt;br&gt;http POST /v1/kubernetes/deployment" style="text;html=1;align=center;verticalAlign=middle;whiteSpace=wrap;rounded=0;" parent="1" vertex="1">
          <mxGeometry x="30" y="320" width="290" height="30" as="geometry" />
        </mxCell>
        <mxCell id="VmBzKAPH3LvwEZfFCWB9-36" style="edgeStyle=orthogonalEdgeStyle;rounded=0;orthogonalLoop=1;jettySize=auto;html=1;exitX=0.5;exitY=1;exitDx=0;exitDy=0;" parent="1" edge="1">
          <mxGeometry relative="1" as="geometry">
            <mxPoint x="130" y="550" as="sourcePoint" />
            <mxPoint x="130" y="550" as="targetPoint" />
          </mxGeometry>
        </mxCell>
        <mxCell id="VmBzKAPH3LvwEZfFCWB9-38" value="User action on browser&lt;br&gt;instance creation" style="text;html=1;align=center;verticalAlign=middle;whiteSpace=wrap;rounded=0;" parent="1" vertex="1">
          <mxGeometry x="-350" y="320" width="200" height="30" as="geometry" />
        </mxCell>
        <mxCell id="VmBzKAPH3LvwEZfFCWB9-48" value="Kubernetes Cluster&lt;br&gt;Cluster 2" style="whiteSpace=wrap;html=1;aspect=fixed;fillColor=#dae8fc;strokeColor=#6c8ebf;" parent="1" vertex="1">
          <mxGeometry x="1040" y="315" width="205" height="205" as="geometry" />
        </mxCell>
        <mxCell id="VmBzKAPH3LvwEZfFCWB9-51" value="" style="endArrow=classic;html=1;rounded=0;exitX=1.001;exitY=0.627;exitDx=0;exitDy=0;exitPerimeter=0;entryX=-0.015;entryY=0.463;entryDx=0;entryDy=0;entryPerimeter=0;" parent="1" source="VmBzKAPH3LvwEZfFCWB9-1" target="VmBzKAPH3LvwEZfFCWB9-48" edge="1">
          <mxGeometry width="50" height="50" relative="1" as="geometry">
            <mxPoint x="880" y="405" as="sourcePoint" />
            <mxPoint x="930" y="320" as="targetPoint" />
          </mxGeometry>
        </mxCell>
        <mxCell id="VmBzKAPH3LvwEZfFCWB9-53" style="edgeStyle=orthogonalEdgeStyle;rounded=0;orthogonalLoop=1;jettySize=auto;html=1;exitX=0.5;exitY=1;exitDx=0;exitDy=0;" parent="1" edge="1">
          <mxGeometry relative="1" as="geometry">
            <mxPoint x="765" y="420" as="sourcePoint" />
            <mxPoint x="765" y="420" as="targetPoint" />
          </mxGeometry>
        </mxCell>
        <mxCell id="VmBzKAPH3LvwEZfFCWB9-56" value="create gitops repository&lt;br&gt;helm" style="text;html=1;align=center;verticalAlign=middle;whiteSpace=wrap;rounded=0;" parent="1" vertex="1">
          <mxGeometry x="600" y="690" width="150" height="30" as="geometry" />
        </mxCell>
        <mxCell id="VmBzKAPH3LvwEZfFCWB9-58" value="helm install&lt;div&gt;fluxCD&lt;/div&gt;" style="text;html=1;align=center;verticalAlign=middle;whiteSpace=wrap;rounded=0;" parent="1" vertex="1">
          <mxGeometry x="820" y="370" width="170" height="30" as="geometry" />
        </mxCell>
        <mxCell id="VmBzKAPH3LvwEZfFCWB9-72" value="Gitlab" style="whiteSpace=wrap;html=1;aspect=fixed;fillColor=#dae8fc;strokeColor=#6c8ebf;" parent="1" vertex="1">
          <mxGeometry x="495" y="820" width="205" height="205" as="geometry" />
        </mxCell>
        <mxCell id="VmBzKAPH3LvwEZfFCWB9-73" value="" style="endArrow=classic;html=1;rounded=0;exitX=0.624;exitY=1;exitDx=0;exitDy=0;exitPerimeter=0;entryX=0.5;entryY=0;entryDx=0;entryDy=0;" parent="1" source="VmBzKAPH3LvwEZfFCWB9-1" target="VmBzKAPH3LvwEZfFCWB9-72" edge="1">
          <mxGeometry width="50" height="50" relative="1" as="geometry">
            <mxPoint x="910" y="720" as="sourcePoint" />
            <mxPoint x="960" y="670" as="targetPoint" />
          </mxGeometry>
        </mxCell>
        <mxCell id="VmBzKAPH3LvwEZfFCWB9-84" value="git pull&lt;br&gt;helm template | kubectl apply" style="text;html=1;align=center;verticalAlign=middle;whiteSpace=wrap;rounded=0;" parent="1" vertex="1">
          <mxGeometry x="860" y="940" width="200" height="30" as="geometry" />
        </mxCell>
        <mxCell id="oKcMAaPuIGs6lxj5BwL7-1" value="FluxCD" style="whiteSpace=wrap;html=1;aspect=fixed;fillColor=#0050ef;fontColor=#ffffff;strokeColor=#001DBC;" vertex="1" parent="1">
          <mxGeometry x="1165" y="440" width="80" height="80" as="geometry" />
        </mxCell>
        <mxCell id="oKcMAaPuIGs6lxj5BwL7-2" value="" style="endArrow=classic;html=1;rounded=0;exitX=0.5;exitY=1;exitDx=0;exitDy=0;entryX=1;entryY=0.5;entryDx=0;entryDy=0;" edge="1" parent="1" source="oKcMAaPuIGs6lxj5BwL7-1" target="VmBzKAPH3LvwEZfFCWB9-72">
          <mxGeometry width="50" height="50" relative="1" as="geometry">
            <mxPoint x="1050" y="820" as="sourcePoint" />
            <mxPoint x="1260" y="1190" as="targetPoint" />
            <Array as="points">
              <mxPoint x="1200" y="923" />
            </Array>
          </mxGeometry>
        </mxCell>
        <mxCell id="oKcMAaPuIGs6lxj5BwL7-3" value="kube&lt;br&gt;config&lt;br&gt;cluster2" style="shape=card;whiteSpace=wrap;html=1;fillColor=#6d8764;fontColor=#ffffff;strokeColor=#3A5431;" vertex="1" parent="1">
          <mxGeometry x="660" y="350" width="80" height="100" as="geometry" />
        </mxCell>
        <mxCell id="oKcMAaPuIGs6lxj5BwL7-4" value="kube&lt;br&gt;config&lt;br&gt;cluster1" style="shape=card;whiteSpace=wrap;html=1;fillColor=#6d8764;fontColor=#ffffff;strokeColor=#3A5431;" vertex="1" parent="1">
          <mxGeometry x="660" y="250" width="80" height="100" as="geometry" />
        </mxCell>
        <mxCell id="oKcMAaPuIGs6lxj5BwL7-5" value="kube&lt;br&gt;config&lt;br&gt;cluster3" style="shape=card;whiteSpace=wrap;html=1;fillColor=#6d8764;fontColor=#ffffff;strokeColor=#3A5431;" vertex="1" parent="1">
          <mxGeometry x="660" y="450" width="80" height="100" as="geometry" />
        </mxCell>
      </root>
    </mxGraphModel>
  </diagram>
</mxfile>
